<svg width="559.99999" height="559.99999" xmlns="http://www.w3.org/2000/svg" xmlns:undefined="http://sodipodi.sourceforge.net/DTD/sodipodi-0.dtd" xmlns:undefined="http://www.inkscape.org/namespaces/inkscape" xml:space="preserve" enable-background="new 0 0 532.627 498.523" version="1.1">
 <defs id="defs11">
  <clipPath id="clipPath23113" clipPathUnits="userSpaceOnUse">
   <circle stroke-miterlimit="4" stroke-width="2.963" fill="#0054a6" r="252.57939" cy="279.8804" cx="280.01196" id="circle23115"/>
  </clipPath>
  <clipPath id="clipPath3227" clipPathUnits="userSpaceOnUse">
   <path stroke-width="1px" stroke="#000000" fill="none"   id="path3229" d="m435.44688,177.4754c-5.90951,7.14809 -9.78357,15.96041 -11.05524,25.14738c-1.27167,9.18697 0.063,18.72029 3.80859,27.20485c3.74562,8.48456 9.89071,15.89424 17.53598,21.1447c7.64527,5.25046 16.76719,8.32554 26.03084,8.77522c15.30311,0.74286 30.79637,-5.96322 40.72859,-17.62889c9.93223,-11.66566 14.0814,-28.03017 10.90733,-43.0189c-1.94656,-9.19211 -6.53149,-17.80994 -13.06697,-24.56061c-6.53547,-6.75067 -15.00029,-11.6123 -24.12453,-13.85553c-9.12424,-2.24323 -18.87834,-1.8608 -27.79894,1.08994c-8.9206,2.95073 -16.97879,8.46019 -22.96565,15.70184z"/>
  </clipPath>
  <clipPath id="clipPath7261" clipPathUnits="userSpaceOnUse">
   <ellipse stroke-width="1.88976" stroke="#009b42" fill="#ff00ff" ry="40.11541" rx="52.73102" cy="211.43802" cx="483.82855" id="ellipse7263"/>
  </clipPath>
  <clipPath id="clipPath8189" clipPathUnits="userSpaceOnUse">
   <ellipse stroke-miterlimit="4" stroke-width="0.1" stroke="#eeb54d" fill="#ff00ff" ry="41.83268" rx="48.45728" cy="210.98299" cx="473.60403" id="ellipse8191"/>
  </clipPath>
 </defs>
 <switch transform="translate(548.0469,-157.95312)" id="switch8080"/>
 <g>
  <title>Layer 1</title>
  <path stroke-miterlimit="4" stroke-width="2.963" fill="#ffffff" d="m280.01172,27.30078a252.57939,252.57939 0 0 0 -252.58008,252.58008a252.57939,252.57939 0 0 0 30.3125,119.88476c1.45109,0.33906 2.84335,0.89254 4.19727,1.51563c4.89881,2.2545 9.52728,5.5132 12.27343,10.1543c1.37308,2.32054 2.24329,4.9602 2.35352,7.65429c0.10921,2.66918 -0.55922,5.3831 -2.00781,7.62696a252.57939,252.57939 0 0 0 205.45117,105.74218a252.57939,252.57939 0 0 0 252.58008,-252.57812a252.57939,252.57939 0 0 0 -252.58008,-252.58008z" id="circle"/>
  <path  id="tongue" d="m513.56686,184.93081l12.891,-5.996l8.711,-23.809l9.141,3.203l-7.852,21.289l21.758,7.5l-3.281,8.916l-24.297,-8.486l-13.398,6.162" fill="#000000" clip-rule="evenodd" fill-rule="evenodd"/>
  <path clip-path="url(#clipPath23113)"  id="snake" d="m373.90992,313.03486c-17.39799,-23.797 -51.77696,-37.63286 -81.2681,-44.12822c-29.49115,-6.49535 -47.44014,-11.51901 -61.77612,-19.27626c-16.36281,-8.85397 -29.22641,-34.96222 -24.20294,-57.598c7.88381,-35.52446 39.61017,-61.08652 75.84117,-56.02752c18.094,2.559 33.438,12.139 43.55499,25.625l40.117,52.705c22.93,29.531 48.71101,38.32 76.758,24.375l13.64756,-6.45002c1.133,-0.527 2.50681,-1.59041 4.73081,-0.88308c2.224,0.70733 3.31502,2.62611 4.56297,4.87011c1.24794,2.244 2.56705,4.31231 4.91495,4.87732c2.34789,0.56501 5.6182,0.177 7.14707,-1.28038c10.39551,-9.90944 31.48264,-30.08895 31.48264,-30.08895c5.703,-4.883 4.023,-9.365 4.023,-9.365l-7.852,-17.881c0,0 -2.148,-4.287 -9.57,-3.301l-43.672,4.014c-2.539,0.361 -4.805,2.051 -5.781,4.629c-0.586,1.504 -0.625,3.076 -0.195,4.502l1.563,5.029c0.313,1.045 0.313,2.217 -0.117,3.291c-0.508,1.328 -1.523,2.266 -2.734,2.764l-12.344,5.225c-14.22674,4.82612 -27.617,2.734 -37.422,-9.258l-11.211,-14.893l-31.914,-42.354c-15.156,-20.098 -38.00799,-34.434 -64.99999,-38.203c-54.043,-7.568 -104.199,29.854 -112.051,83.584c-3.965,27.08 -0.23964,49.98277 20.21927,73.38016c20.45892,23.39738 60.24695,32.31062 94.71373,40.20984c3.688,0.875 14.063,3.438 20.203,5.656c5.676,2.055 18.74999,6.875 29.37499,15.57l0,0c12.695,12.906 19.414,31.344 16.563,50.68c-4.805,32.969 -35.586,55.938 -68.74999,51.289c-16.611,-2.305 -30.635,-11.109 -39.922,-23.438l-38.32,-50.859c-7.813,-10.367 -19.629,-17.773 -33.594,-19.766c-13.945,-1.953 -27.441,1.914 -37.9,9.75l-80.04342,59.73605c3.39295,9.65154 7.68673,19.24315 16.84366,27.03872l82.52376,-61.87477c3.779,-2.578 8.467,-3.75 13.33,-3.086c5.176,0.742 9.58,3.461 12.471,7.305l40.537,54.477c14.277,17.516 35.02,29.922 59.307,33.336c51.09399,7.148 98.51599,-28.242 105.93799,-79.063c3.436,-23.649 -2.345,-46.485 -14.728,-64.844" fill="#000000" clip-rule="evenodd" fill-rule="evenodd"/>
 </g>
</svg>